
<svg xmlns="http://www.w3.org/2000/svg" width="375pt" height="269.999989pt" viewBox="0 0 375 269.999989">
<g id="surface1">
<path style=" stroke:none;fill-rule:nonzero;fill:rgb(100%,100%,100%);fill-opacity:1;" d="M 20.523438 4.402344 C 19.90625 4.394531 19.289062 4.417969 18.675781 4.46875 C 18.0625 4.519531 17.453125 4.601562 16.84375 4.714844 C 16.238281 4.828125 15.640625 4.972656 15.046875 5.144531 C 14.457031 5.316406 13.875 5.515625 13.300781 5.746094 C 12.730469 5.976562 12.171875 6.234375 11.625 6.519531 C 11.078125 6.804688 10.546875 7.117188 10.03125 7.453125 C 9.515625 7.792969 9.015625 8.15625 8.535156 8.542969 C 8.058594 8.929688 7.597656 9.339844 7.160156 9.773438 C 6.71875 10.207031 6.304688 10.660156 5.910156 11.132812 C 5.515625 11.609375 5.144531 12.101562 4.800781 12.613281 C 4.453125 13.121094 4.136719 13.648438 3.84375 14.191406 C 3.550781 14.734375 3.285156 15.289062 3.046875 15.859375 C 2.808594 16.425781 2.597656 17.007812 2.417969 17.597656 C 2.238281 18.1875 2.085938 18.78125 1.964844 19.386719 C 1.84375 19.992188 1.753906 20.601562 1.691406 21.214844 C 1.628906 21.828125 1.601562 22.441406 1.601562 23.058594 C 1.601562 23.675781 1.628906 24.292969 1.691406 24.90625 C 1.753906 25.519531 1.84375 26.128906 1.964844 26.730469 C 2.085938 27.335938 2.238281 27.933594 2.417969 28.523438 C 2.597656 29.113281 2.808594 29.691406 3.046875 30.261719 C 3.285156 30.828125 3.550781 31.386719 3.84375 31.929688 C 4.136719 32.46875 4.453125 32.996094 4.800781 33.507812 C 5.144531 34.019531 5.515625 34.511719 5.910156 34.984375 C 6.304688 35.460938 6.71875 35.914062 7.160156 36.347656 C 7.597656 36.777344 8.058594 37.1875 8.535156 37.578125 C 9.015625 37.964844 9.515625 38.328125 10.03125 38.664062 C 10.546875 39.003906 11.078125 39.3125 11.625 39.601562 C 12.171875 39.886719 12.730469 40.144531 13.300781 40.371094 C 13.875 40.601562 14.457031 40.804688 15.046875 40.976562 C 15.640625 41.148438 16.238281 41.289062 16.84375 41.402344 C 17.453125 41.515625 18.0625 41.597656 18.675781 41.652344 C 19.289062 41.703125 19.90625 41.726562 20.523438 41.714844 L 356.34375 41.714844 C 356.960938 41.726562 357.574219 41.703125 358.191406 41.652344 C 358.804688 41.597656 359.414062 41.515625 360.019531 41.402344 C 360.625 41.289062 361.226562 41.148438 361.816406 40.976562 C 362.410156 40.804688 362.992188 40.601562 363.5625 40.371094 C 364.136719 40.144531 364.695312 39.886719 365.242188 39.601562 C 365.789062 39.3125 366.320312 39.003906 366.835938 38.664062 C 367.351562 38.328125 367.847656 37.964844 368.328125 37.578125 C 368.808594 37.1875 369.269531 36.777344 369.707031 36.347656 C 370.144531 35.914062 370.5625 35.460938 370.957031 34.984375 C 371.351562 34.511719 371.71875 34.019531 372.066406 33.507812 C 372.410156 32.996094 372.730469 32.46875 373.023438 31.929688 C 373.316406 31.386719 373.582031 30.828125 373.820312 30.261719 C 374.058594 29.691406 374.265625 29.113281 374.449219 28.523438 C 374.628906 27.933594 374.777344 27.335938 374.902344 26.730469 C 375.023438 26.128906 375.113281 25.519531 375.175781 24.90625 C 375.234375 24.292969 375.265625 23.675781 375.265625 23.058594 C 375.265625 22.441406 375.234375 21.828125 375.175781 21.214844 C 375.113281 20.601562 375.023438 19.992188 374.902344 19.386719 C 374.777344 18.78125 374.628906 18.1875 374.449219 17.597656 C 374.265625 17.007812 374.058594 16.425781 373.820312 15.859375 C 373.582031 15.289062 373.316406 14.734375 373.023438 14.191406 C 372.730469 13.648438 372.410156 13.121094 372.066406 12.613281 C 371.71875 12.101562 371.351562 11.609375 370.957031 11.132812 C 370.5625 10.660156 370.144531 10.207031 369.707031 9.773438 C 369.269531 9.339844 368.808594 8.929688 368.328125 8.542969 C 367.847656 8.15625 367.351562 7.792969 366.835938 7.453125 C 366.320312 7.117188 365.789062 6.804688 365.242188 6.519531 C 364.695312 6.234375 364.136719 5.976562 363.5625 5.746094 C 362.992188 5.515625 362.410156 5.316406 361.816406 5.144531 C 361.226562 4.972656 360.625 4.828125 360.019531 4.714844 C 359.414062 4.601562 358.804688 4.519531 358.191406 4.46875 C 357.574219 4.417969 356.960938 4.394531 356.34375 4.402344 Z M 20.523438 116.34375 C 19.90625 116.335938 19.289062 116.355469 18.675781 116.410156 C 18.0625 116.460938 17.453125 116.542969 16.84375 116.65625 C 16.238281 116.769531 15.640625 116.910156 15.046875 117.082031 C 14.457031 117.257812 13.875 117.457031 13.300781 117.6875 C 12.730469 117.917969 12.171875 118.175781 11.625 118.460938 C 11.078125 118.746094 10.546875 119.058594 10.03125 119.394531 C 9.515625 119.734375 9.015625 120.097656 8.535156 120.484375 C 8.058594 120.871094 7.597656 121.28125 7.160156 121.714844 C 6.71875 122.148438 6.304688 122.601562 5.910156 123.074219 C 5.515625 123.546875 5.144531 124.039062 4.800781 124.550781 C 4.453125 125.0625 4.136719 125.589844 3.84375 126.132812 C 3.550781 126.675781 3.285156 127.230469 3.046875 127.800781 C 2.808594 128.367188 2.597656 128.945312 2.417969 129.535156 C 2.238281 130.125 2.085938 130.722656 1.964844 131.328125 C 1.84375 131.933594 1.753906 132.542969 1.691406 133.15625 C 1.632812 133.769531 1.601562 134.382812 1.601562 135 C 1.601562 135.617188 1.632812 136.230469 1.691406 136.84375 C 1.753906 137.457031 1.84375 138.066406 1.964844 138.671875 C 2.085938 139.277344 2.238281 139.875 2.417969 140.464844 C 2.597656 141.054688 2.808594 141.632812 3.046875 142.199219 C 3.285156 142.769531 3.550781 143.324219 3.84375 143.867188 C 4.136719 144.410156 4.453125 144.9375 4.800781 145.449219 C 5.144531 145.957031 5.515625 146.453125 5.910156 146.925781 C 6.304688 147.398438 6.71875 147.851562 7.160156 148.285156 C 7.597656 148.71875 8.058594 149.128906 8.535156 149.515625 C 9.015625 149.902344 9.515625 150.265625 10.03125 150.605469 C 10.546875 150.941406 11.078125 151.253906 11.625 151.539062 C 12.171875 151.824219 12.730469 152.082031 13.300781 152.3125 C 13.875 152.542969 14.457031 152.742188 15.046875 152.917969 C 15.640625 153.089844 16.238281 153.230469 16.84375 153.34375 C 17.453125 153.457031 18.0625 153.539062 18.675781 153.589844 C 19.289062 153.644531 19.90625 153.664062 20.523438 153.65625 L 356.34375 153.65625 C 356.960938 153.664062 357.574219 153.644531 358.191406 153.589844 C 358.804688 153.539062 359.414062 153.457031 360.019531 153.34375 C 360.625 153.230469 361.226562 153.089844 361.816406 152.917969 C 362.410156 152.742188 362.992188 152.542969 363.5625 152.3125 C 364.136719 152.082031 364.695312 151.824219 365.242188 151.539062 C 365.789062 151.253906 366.320312 150.941406 366.835938 150.605469 C 367.351562 150.265625 367.847656 149.902344 368.328125 149.515625 C 368.808594 149.128906 369.269531 148.71875 369.707031 148.285156 C 370.144531 147.851562 370.5625 147.398438 370.957031 146.925781 C 371.351562 146.453125 371.71875 145.957031 372.066406 145.449219 C 372.410156 144.9375 372.730469 144.410156 373.023438 143.867188 C 373.316406 143.324219 373.582031 142.769531 373.820312 142.199219 C 374.058594 141.632812 374.265625 141.054688 374.449219 140.464844 C 374.628906 139.875 374.777344 139.277344 374.898438 138.671875 C 375.023438 138.066406 375.113281 137.457031 375.171875 136.84375 C 375.234375 136.230469 375.265625 135.617188 375.265625 135 C 375.265625 134.382812 375.234375 133.769531 375.171875 133.15625 C 375.113281 132.542969 375.023438 131.933594 374.898438 131.328125 C 374.777344 130.722656 374.628906 130.125 374.449219 129.535156 C 374.265625 128.945312 374.058594 128.367188 373.820312 127.800781 C 373.582031 127.230469 373.316406 126.675781 373.023438 126.132812 C 372.730469 125.589844 372.410156 125.0625 372.066406 124.550781 C 371.71875 124.042969 371.351562 123.546875 370.957031 123.074219 C 370.5625 122.601562 370.144531 122.148438 369.707031 121.714844 C 369.269531 121.28125 368.808594 120.871094 368.328125 120.484375 C 367.847656 120.097656 367.351562 119.734375 366.835938 119.394531 C 366.320312 119.058594 365.789062 118.746094 365.242188 118.460938 C 364.695312 118.175781 364.136719 117.917969 363.5625 117.6875 C 362.992188 117.457031 362.410156 117.257812 361.816406 117.082031 C 361.226562 116.910156 360.625 116.769531 360.019531 116.65625 C 359.414062 116.542969 358.804688 116.460938 358.191406 116.410156 C 357.574219 116.355469 356.960938 116.335938 356.34375 116.34375 Z M 20.523438 228.285156 C 19.90625 228.273438 19.289062 228.296875 18.675781 228.347656 C 18.0625 228.402344 17.453125 228.484375 16.84375 228.597656 C 16.238281 228.710938 15.640625 228.851562 15.046875 229.023438 C 14.457031 229.195312 13.875 229.398438 13.300781 229.628906 C 12.730469 229.855469 12.167969 230.113281 11.625 230.398438 C 11.078125 230.683594 10.546875 230.996094 10.03125 231.335938 C 9.515625 231.671875 9.015625 232.035156 8.535156 232.421875 C 8.058594 232.8125 7.597656 233.222656 7.160156 233.652344 C 6.71875 234.085938 6.304688 234.539062 5.910156 235.015625 C 5.515625 235.488281 5.144531 235.980469 4.800781 236.492188 C 4.453125 237.003906 4.136719 237.53125 3.84375 238.070312 C 3.550781 238.613281 3.285156 239.171875 3.046875 239.738281 C 2.808594 240.308594 2.597656 240.886719 2.417969 241.476562 C 2.238281 242.066406 2.085938 242.664062 1.964844 243.269531 C 1.84375 243.871094 1.753906 244.480469 1.691406 245.09375 C 1.628906 245.707031 1.601562 246.324219 1.601562 246.941406 C 1.601562 247.558594 1.628906 248.171875 1.691406 248.785156 C 1.753906 249.398438 1.84375 250.007812 1.964844 250.613281 C 2.085938 251.21875 2.238281 251.8125 2.417969 252.402344 C 2.597656 252.992188 2.808594 253.574219 3.046875 254.140625 C 3.285156 254.710938 3.550781 255.265625 3.84375 255.808594 C 4.136719 256.351562 4.453125 256.878906 4.800781 257.386719 C 5.144531 257.898438 5.515625 258.390625 5.910156 258.867188 C 6.304688 259.339844 6.71875 259.792969 7.160156 260.226562 C 7.597656 260.660156 8.058594 261.070312 8.535156 261.457031 C 9.015625 261.84375 9.515625 262.207031 10.03125 262.546875 C 10.546875 262.882812 11.078125 263.195312 11.625 263.480469 C 12.167969 263.765625 12.730469 264.023438 13.300781 264.253906 C 13.875 264.484375 14.457031 264.683594 15.046875 264.855469 C 15.640625 265.027344 16.238281 265.171875 16.84375 265.285156 C 17.453125 265.398438 18.0625 265.480469 18.675781 265.53125 C 19.289062 265.582031 19.90625 265.605469 20.523438 265.597656 L 356.34375 265.597656 C 356.960938 265.605469 357.574219 265.582031 358.191406 265.53125 C 358.804688 265.480469 359.414062 265.398438 360.019531 265.285156 C 360.625 265.171875 361.226562 265.027344 361.816406 264.855469 C 362.410156 264.683594 362.992188 264.484375 363.5625 264.253906 C 364.136719 264.023438 364.695312 263.765625 365.242188 263.480469 C 365.789062 263.195312 366.320312 262.882812 366.835938 262.546875 C 367.351562 262.207031 367.847656 261.84375 368.328125 261.457031 C 368.808594 261.070312 369.269531 260.660156 369.707031 260.226562 C 370.144531 259.792969 370.5625 259.339844 370.957031 258.867188 C 371.351562 258.390625 371.722656 257.898438 372.066406 257.386719 C 372.410156 256.878906 372.730469 256.351562 373.023438 255.808594 C 373.316406 255.265625 373.582031 254.710938 373.820312 254.140625 C 374.058594 253.574219 374.265625 252.992188 374.449219 252.402344 C 374.628906 251.8125 374.78125 251.21875 374.902344 250.613281 C 375.023438 250.007812 375.113281 249.398438 375.175781 248.785156 C 375.234375 248.171875 375.265625 247.558594 375.265625 246.941406 C 375.265625 246.324219 375.234375 245.707031 375.175781 245.09375 C 375.113281 244.480469 375.023438 243.871094 374.902344 243.269531 C 374.78125 242.664062 374.628906 242.066406 374.449219 241.476562 C 374.265625 240.886719 374.058594 240.308594 373.820312 239.738281 C 373.582031 239.171875 373.316406 238.613281 373.023438 238.070312 C 372.730469 237.53125 372.410156 237.003906 372.066406 236.492188 C 371.722656 235.980469 371.351562 235.488281 370.957031 235.015625 C 370.5625 234.539062 370.144531 234.085938 369.707031 233.652344 C 369.269531 233.222656 368.808594 232.8125 368.328125 232.421875 C 367.847656 232.035156 367.351562 231.671875 366.835938 231.335938 C 366.320312 230.996094 365.789062 230.683594 365.242188 230.398438 C 364.695312 230.113281 364.136719 229.855469 363.5625 229.628906 C 362.992188 229.398438 362.410156 229.195312 361.816406 229.023438 C 361.226562 228.851562 360.625 228.710938 360.019531 228.597656 C 359.414062 228.484375 358.804688 228.402344 358.191406 228.347656 C 357.574219 228.296875 356.960938 228.273438 356.34375 228.285156 Z M 20.523438 228.285156 "/>
</g>
</svg>
